<svg xmlns="http://www.w3.org/2000/svg" xmlns:svg="http://www.w3.org/2000/svg" xmlns:xlink="http://www.w3.org/1999/xlink" id="svg8" width="24" height="24" version="1.1" viewBox="0 0 6.35 6.35"><defs id="defs2"><linearGradient id="linearGradient2224" x1="572" x2="572" y1="-6.813" y2="2.119" gradientUnits="userSpaceOnUse" xlink:href="#linearGradient10005"/><linearGradient id="linearGradient10005"><stop style="stop-color:#e3d0b5;stop-opacity:1" id="stop10007" offset="0"/><stop id="stop10009" offset=".92" style="stop-color:#e5d3ba;stop-opacity:1"/><stop style="stop-color:#d3b58b;stop-opacity:1" id="stop10011" offset="1"/></linearGradient><linearGradient id="linearGradient2226" x1="568.014" x2="568.014" y1="2.228" y2="-5" gradientUnits="userSpaceOnUse" xlink:href="#linearGradient8316"/><linearGradient id="linearGradient8316"><stop style="stop-color:#fff;stop-opacity:1" id="stop8318" offset="0"/><stop style="stop-color:#fff;stop-opacity:0" id="stop8320" offset="1"/></linearGradient><radialGradient id="radialGradient2228" cx="566.831" cy="-6.5" r="7.007" fx="566.831" fy="-6.5" gradientTransform="matrix(2.8345188,0,0,0.64220385,-1042.8817,-2.3256749)" gradientUnits="userSpaceOnUse" xlink:href="#linearGradient8316"/></defs><metadata id="metadata5"/><g id="layer1" transform="translate(0,-290.65)"><path style="color:#000;clip-rule:nonzero;display:inline;overflow:visible;visibility:visible;opacity:1;isolation:auto;mix-blend-mode:normal;color-interpolation:sRGB;color-interpolation-filters:linearRGB;solid-color:#000;solid-opacity:1;fill:#bca780;fill-opacity:.1563981;fill-rule:evenodd;stroke:#bca780;stroke-width:1.00157476;stroke-linecap:butt;stroke-linejoin:round;stroke-miterlimit:4;stroke-dasharray:2.00314954,1.00157476000000001;stroke-dashoffset:0;stroke-opacity:1;marker:none;color-rendering:auto;image-rendering:auto;shape-rendering:auto;text-rendering:auto;enable-background:accumulate" id="path870" d="M 2.5 1.5 C 1.50385 1.5151181 1.5 2.625 1.5 2.625 L 1.5 6.578125 L 1.5 12.5 L 1.5 13 C 1.5 14.337575 2.18182 15.5 3 15.5 L 15 15.5 C 15.81819 15.5 16.5 14.337575 16.5 13 L 16.5 12.5 L 16.5 4.65625 L 16.5 4.5 C 16.484391 3.5311559 15.5 3.5 15.5 3.5 L 9.2597656 3.5 C 9.2308438 3.4742459 9.2127315 3.4329102 9.125 3.3125 L 8.15625 1.96875 C 7.9464484 1.6765925 7.6096402 1.5024189 7.25 1.5 L 2.5 1.5 z" transform="matrix(0.26458333,0,0,0.26458333,0,290.65)"/><g id="g868" transform="translate(-16.668747,2.6458333)"><g id="g8715" transform="matrix(0.26458333,0,0,0.26458333,-129.64583,293.03125)" style="display:inline;enable-background:new"><path id="path11539" d="M 560.5,-9.375 V 0.5 h 15 v -7.84375 c -6e-5,-0.62129 -0.50371,-1.12494 -1.125,-1.125 h -5.84375 c -0.3334,0 -0.20853,0.0527 -0.40625,-0.21875 l -0.96875,-1.34375 c -0.2098,-0.29211 -0.54661,-0.46632 -0.90625,-0.46875 h -4.75 c -0.99615,0.0162 -1,1.125 -1,1.125 z" style="color:#000;clip-rule:nonzero;display:inline;overflow:visible;visibility:visible;opacity:1;isolation:auto;mix-blend-mode:normal;color-interpolation:sRGB;color-interpolation-filters:linearRGB;solid-color:#000;solid-opacity:1;fill:#c3b08d;fill-opacity:1;fill-rule:evenodd;stroke:#bca780;stroke-width:1;stroke-linecap:butt;stroke-linejoin:round;stroke-miterlimit:4;stroke-dasharray:none;stroke-dashoffset:0;stroke-opacity:1;marker:none;color-rendering:auto;image-rendering:auto;shape-rendering:auto;text-rendering:auto;enable-background:accumulate"/><path id="path11541" d="m 561.5,1 h 13 v -8.5 l -5.96875,-0.0312 c -0.0587,0 -0.0805,-10e-4 -0.15625,0 -0.0757,0.001 -0.29559,0.0325 -0.5625,-0.125 -0.26691,-0.15754 -0.34468,-0.32772 -0.375,-0.375 -0.0303,-0.0473 -0.0322,-0.0522 -0.0625,-0.0937 l -0.96875,-1.28057 c -0.0355,-0.0494 -0.0954,-0.0933 -0.15625,-0.0937 L 561.5,-9.5 Z" style="display:inline;opacity:.072;fill:none;fill-opacity:0;stroke:#fff;stroke-width:1;stroke-linejoin:round;stroke-miterlimit:4;stroke-dasharray:none;stroke-opacity:1;enable-background:new"/><path id="path8086" d="m 561.49288,-9.49995 h 5" style="opacity:.17300002;fill:none;fill-rule:evenodd;stroke:#fff;stroke-width:1px;stroke-linecap:round;stroke-linejoin:miter;stroke-opacity:1"/></g><g id="g8720" transform="matrix(0.26458333,0,0,0.26458333,-129.64583,293.03125)" style="display:inline;enable-background:new"><path style="color:#000;clip-rule:nonzero;display:inline;overflow:visible;visibility:visible;opacity:1;isolation:auto;mix-blend-mode:normal;color-interpolation:sRGB;color-interpolation-filters:linearRGB;solid-color:#000;solid-opacity:1;fill:url(#linearGradient2224);fill-opacity:1;fill-rule:nonzero;stroke:#beab8b;stroke-width:1;stroke-linecap:butt;stroke-linejoin:miter;stroke-miterlimit:4;stroke-dasharray:none;stroke-dashoffset:0;stroke-opacity:1;marker:none;color-rendering:auto;image-rendering:auto;shape-rendering:auto;text-rendering:auto;enable-background:new" id="path11543" d="m 566.92188,-8.5 c -0.34915,0 -0.55954,0.2095926 -0.73438,0.34375 l -1.45228,1.47457 C 564.60566,-6.5501267 564.49257,-6.5 564.1875,-6.5 h -2.5625 c -0.65057,0 -1.12499,0.433425 -1.125,1.078125 V 1 c 0,1.33755 0.68182,2.5 1.5,2.5 h 12 c 0.81819,0 1.5,-1.16245 1.5,-2.5 v -8.5 c -0.0156,-0.96881 -1,-1 -1,-1 z"/><path id="path8314" d="m 566.92188,-7.5 c 0.051,0 0.14153,-0.067801 -0.125,0.1367188 l 0.10351,-0.091797 -1.45312,1.4746093 c -0.12156,0.1234147 -0.34139,0.2961474 -0.58789,0.3828126 C 564.61287,-5.5109911 564.39477,-5.5 564.1875,-5.5 h -2.5625 c -0.20642,0 -0.125,-0.075997 -0.125,0.078125 V 1 c 0,0.4988574 0.14105,0.9688306 0.30273,1.2402344 C 561.96442,2.5116381 562.0645,2.5 562,2.5 h 12 c -0.0645,0 0.0356,0.011637 0.19727,-0.2597656 C 574.35895,1.968832 574.5,1.4988599 574.5,1 v -8.484375 c -0.002,-0.1460121 0.0557,0.019531 0.0332,0.00781 -0.0116,-0.00602 -0.0196,-0.007 -0.0332,-0.011719 -0.0128,-0.00447 -0.0312,-0.011719 -0.0312,-0.011719 z" style="color:#000;clip-rule:nonzero;display:inline;overflow:visible;visibility:visible;opacity:.32400004;isolation:auto;mix-blend-mode:normal;color-interpolation:sRGB;color-interpolation-filters:linearRGB;solid-color:#000;solid-opacity:1;fill:none;fill-opacity:1;fill-rule:nonzero;stroke:url(#linearGradient2226);stroke-width:1;stroke-linecap:butt;stroke-linejoin:round;stroke-miterlimit:4;stroke-dasharray:none;stroke-dashoffset:0;stroke-opacity:1;marker:none;color-rendering:auto;image-rendering:auto;shape-rendering:auto;text-rendering:auto;enable-background:new"/><path id="path11571" d="m 574.5,-7.5 h -7.52072 l -2.00555,2 H 561.5" style="opacity:.67099998;fill:none;fill-rule:evenodd;stroke:url(#radialGradient2228);stroke-width:1px;stroke-linecap:round;stroke-linejoin:round;stroke-opacity:1"/></g></g></g></svg>